# File created by Blade
# Date/Time:  Thu Jan 15 19:03:44 2015
#---------------------------------------------------------
:version 1.10
:name HOM
:units
  mass 1.0
  length 1.000000
  angle deg
:documentation
     Acclaim Skeleton File
:root
   axis xyz
   order TX TY TZ RX RY RZ
   position 0.000000 0.000000 0.000000
   orientation 0 0 0
:bonedata
   begin
      id 1
      name Spine_dum
      direction 0.000000 1.000000 0.000000
      length 4.354460
      axis 0.0 0.0 0.0 xyz
   end
   begin
      id 2
      name LeftUpLeg_dum
      direction 1.000000 0.000000 0.000000
      length 4.291077
      axis 0.0 0.0 0.0 xyz
   end
   begin
      id 3
      name RightUpLeg_dum
      direction -1.000000 0.000000 0.000000
      length 4.291077
      axis 0.0 0.0 0.0 xyz
   end
   begin
      id 4
      name Spine
      direction 0.000000 1.000000 0.000000
      length 0.000000
      axis 0.0 0.0 0.0 xyz
      dof rx ry rz
   end
   begin
      id 5
      name Spine_dum1
      direction 0.000000 1.000000 0.000000
      length 16.581769
      axis 0.0 0.0 0.0 xyz
   end
   begin
      id 6
      name Spine_dum2
      direction 0.000000 1.000000 0.000000
      length 12.903700
      axis 0.0 0.0 0.0 xyz
   end
   begin
      id 7
      name Spine_dum3
      direction 0.000000 1.000000 0.000000
      length 12.903700
      axis 0.0 0.0 0.0 xyz
   end
   begin
      id 8
      name Head
      direction 0.000000 1.000000 0.000000
      length 4.527550
      axis 0.0 0.0 0.0 xyz
      dof rx ry rz
   end
   begin
      id 9
      name LeftShoulder
      direction 1.000000 0.000000 0.000000
      length 6.942033
      axis 0.0 0.0 -90.0 xyz
      dof rx ry rz
   end
   begin
      id 10
      name LeftArm
      direction 1.000000 0.000000 0.000000
      length 11.010391
      axis 0.0 0.0 -90.0 xyz
      dof rx ry rz
   end
   begin
      id 11
      name LeftForeArm
      direction 1.000000 0.000000 0.000000
      length 8.054994
      axis 0.0 0.0 -90.0 xyz
      dof rz ry rx
   end
   begin
      id 12
      name LeftHand
      direction 0.000000 0.000000 0.000000
      length 0.000000
      axis 0.0 0.0 -90.0 xyz
      dof rx ry rz
   end
   begin
      id 13
      name LeftHand_dum1
      direction 0.000000 0.000000 0.000000
      length 0.000000
      axis 0.0 0.0 -90.0 xyz
   end
   begin
      id 14
      name LeftHand_dum2
      direction 1.000000 0.000000 0.000000
      length 3.937000
      axis 0.0 0.0 -90.0 xyz
   end
   begin
      id 15
      name LeftHandThumb1
      direction 0.000000 0.000000 1.000000
      length 3.937000
      axis 0.0 0.0 -90.0 xyz
      dof rx ry rz
   end
   begin
      id 16
      name RightShoulder
      direction -1.000000 0.000000 0.000000
      length 6.942033
      axis 0.0 0.0 90.0 xyz
      dof rx ry rz
   end
   begin
      id 17
      name RightArm
      direction -1.000000 0.000000 0.000000
      length 11.010391
      axis 0.0 0.0 90.0 xyz
      dof rx ry rz
   end
   begin
      id 18
      name RightForeArm
      direction -1.000000 0.000000 0.000000
      length 8.054994
      axis 0.0 0.0 90.0 xyz
      dof rz ry rx
   end
   begin
      id 19
      name RightHand
      direction 0.000000 0.000000 0.000000
      length 0.000000
      axis 0.0 0.0 90.0 xyz
      dof rx ry rz
   end
   begin
      id 20
      name RightHand_dum1
      direction 0.000000 0.000000 0.000000
      length 0.000000
      axis 0.0 0.0 90.0 xyz
   end
   begin
      id 21
      name RightHand_dum2
      direction -1.000000 0.000000 0.000000
      length 3.937000
      axis 0.0 0.0 90.0 xyz
   end
   begin
      id 22
      name RightHandThumb1
      direction 0.000000 0.000000 1.000000
      length 3.937000
      axis 0.0 0.0 90.0 xyz
      dof rx ry rz
   end
   begin
      id 23
      name LeftUpLeg
      direction 0.000000 -1.000000 0.000000
      length 17.039958
      axis 0.0 0.0 0.0 xyz
      dof rx ry rz
   end
   begin
      id 24
      name LeftLeg
      direction 0.000000 -1.000000 0.000000
      length 16.939743
      axis 0.0 0.0 0.0 xyz
      dof rx ry rz
   end
   begin
      id 25
      name LeftFoot
      direction 0.000000 -0.258819 0.965926
      length 5.235044
      axis 15.0 0.0 0.0 xyz
      dof rx ry rz
   end
   begin
      id 26
      name LeftToeBase
      direction 0.000000 0.000000 1.000000
      length 2.952750
      axis 0.0 0.0 0.0 xyz
      dof rx ry rz
   end
   begin
      id 27
      name RightUpLeg
      direction 0.000000 -1.000000 0.000000
      length 17.039958
      axis 0.0 0.0 0.0 xyz
      dof rx ry rz
   end
   begin
      id 28
      name RightLeg
      direction 0.000000 -1.000000 0.000000
      length 16.939743
      axis 0.0 0.0 0.0 xyz
      dof rx ry rz
   end
   begin
      id 29
      name RightFoot
      direction 0.000000 -0.258819 0.965926
      length 5.235044
      axis 15.0 0.0 0.0 xyz
      dof rx ry rz
   end
   begin
      id 30
      name RightToeBase
      direction 0.000000 0.000000 1.000000
      length 2.952750
      axis 0.0 0.0 0.0 xyz
      dof rx ry rz
   end
:hierarchy
   begin
      root Spine_dum LeftUpLeg_dum RightUpLeg_dum
      Spine_dum Spine
      LeftUpLeg_dum LeftUpLeg
      RightUpLeg_dum RightUpLeg
      Spine Spine_dum1 Spine_dum2 Spine_dum3
      Spine_dum1 Head
      Spine_dum2 LeftShoulder
      Spine_dum3 RightShoulder
      LeftShoulder LeftArm
      LeftArm LeftForeArm
      LeftForeArm LeftHand
      LeftHand LeftHand_dum1 LeftHand_dum2
      LeftHand_dum1 LeftHandThumb1
      RightShoulder RightArm
      RightArm RightForeArm
      RightForeArm RightHand
      RightHand RightHand_dum1 RightHand_dum2
      RightHand_dum1 RightHandThumb1
      LeftUpLeg LeftLeg
      LeftLeg LeftFoot
      LeftFoot LeftToeBase
      RightUpLeg RightLeg
      RightLeg RightFoot
      RightFoot RightToeBase
   end

# File created by Blade
# Date/Time:  Thu Jan 15 19:03:33 2015
# Frame Rate: 120.000 fps
#------------------------------------------------------
:FULLY-SPECIFIED
:DEGREES
2523
root 5.167736 19.854176 -6.101755 -176.156416 1.526046 -181.405521
Spine 16.490824 13.212141 -2.747694
Head -9.317723 -3.801074 11.526240
LeftShoulder 6.356262 1.372477 11.422974
LeftArm 67.216526 -17.370746 -40.993624
LeftForeArm -0.000000 12.383676 13.477731
LeftHand 3.173762 -0.000000 1.910862
LeftHandThumb1 -26.253704 33.147579 0.000000
RightShoulder -5.760257 12.288472 -11.759994
RightArm 47.098832 9.598661 48.571582
RightForeArm 0.000000 -39.012207 25.978009
RightHand -2.383045 -0.000000 4.985847
RightHandThumb1 -24.326973 -32.862282 -0.000000
LeftUpLeg -69.781933 19.152051 -11.101447
LeftLeg 124.972630 -0.000000 -0.000000
LeftFoot -46.004838 12.872303 -19.877879
LeftToeBase -8.353622 -0.000000 0.000000
RightUpLeg -73.620874 -15.981714 10.035546
RightLeg 127.298153 -0.000000 -0.000000
RightFoot -38.866124 -17.681365 19.542058
RightToeBase -16.697034 -0.000000 0.000000
2524
root 5.171170 19.474927 -6.117661 -176.217323 1.468856 -181.507829
Spine 16.581286 13.197519 -2.823051
Head -9.435444 -3.807497 11.390301
LeftShoulder 6.281597 1.757976 11.518099
LeftArm 68.010065 -18.534143 -40.988429
LeftForeArm -0.000000 12.656400 13.432668
LeftHand 3.264017 -0.000000 2.225968
LeftHandThumb1 -26.253704 33.147579 0.000000
RightShoulder -5.758792 12.510851 -12.017338
RightArm 47.140072 10.324773 48.321276
RightForeArm -0.000000 -39.142256 26.551472
RightHand -2.506506 -0.000000 4.718213
RightHandThumb1 -24.326973 -32.862282 -0.000000
LeftUpLeg -70.773089 19.112712 -11.261227
LeftLeg 126.622038 -0.000000 -0.000000
LeftFoot -45.627970 12.847009 -19.685292
LeftToeBase -9.495144 -0.000000 0.000000
RightUpLeg -74.709244 -16.123742 10.294321
RightLeg 128.897602 -0.000000 -0.000000
RightFoot -38.820716 -17.982239 19.551509
RightToeBase -17.317940 -0.000000 0.000000
2525
root 5.177237 19.096167 -6.132509 -176.314305 1.429398 -181.571310
Spine 16.754907 13.209686 -2.828893
Head -9.611708 -3.778806 11.216526
LeftShoulder 6.179942 1.682794 11.444193
LeftArm 68.385447 -19.299991 -40.490356
LeftForeArm -0.000000 12.596447 13.480779
LeftHand 3.324907 -0.000000 2.296421
LeftHandThumb1 -26.253704 33.147579 0.000000
RightShoulder -5.838910 12.883002 -12.306861
RightArm 47.118459 10.893601 48.028082
RightForeArm -0.000000 -39.095909 27.100664
RightHand -2.778884 -0.000000 4.517333
RightHandThumb1 -24.326973 -32.862282 -0.000000
LeftUpLeg -71.731464 19.091884 -11.355962
LeftLeg 128.272357 -0.000000 -0.000000
LeftFoot -45.220130 12.548332 -19.730919
LeftToeBase -10.783122 -0.000000 0.000000
RightUpLeg -75.739138 -16.216970 10.593974
RightLeg 130.458723 -0.000000 -0.000000
RightFoot -38.722452 -18.367360 19.492912
RightToeBase -18.103145 -0.000000 0.000000
2526
root 5.182833 18.721397 -6.150504 -176.466334 1.395560 -181.662216
Spine 16.989879 13.290276 -2.835207
Head -9.778528 -3.797118 11.047480
LeftShoulder 6.154565 1.832089 11.497001
LeftArm 68.851053 -20.184505 -40.105934
LeftForeArm -0.000000 12.665445 13.511251
LeftHand 3.569041 -0.000000 2.686553
LeftHandThumb1 -26.253704 33.147579 0.000000
RightShoulder -6.012904 12.898471 -12.553598
RightArm 47.479076 11.742263 47.935155
RightForeArm -0.000000 -39.183447 27.510601
RightHand -2.831960 -0.000000 4.474885
RightHandThumb1 -24.326973 -32.862282 -0.000000
LeftUpLeg -72.593615 19.080865 -11.449616
LeftLeg 129.858182 -0.000000 -0.000000
LeftFoot -44.913267 12.494877 -19.536089
LeftToeBase -11.696059 -0.000000 0.000000
RightUpLeg -76.686202 -16.301725 10.827864
RightLeg 132.000359 -0.000000 -0.000000
RightFoot -38.748432 -18.643367 19.522277
RightToeBase -18.710554 -0.000000 0.000000
2527
root 5.193997 18.350721 -6.166854 -176.619911 1.371991 -181.697698
Spine 17.243759 13.350735 -2.804472
Head -9.973664 -3.794977 10.898550
LeftShoulder 6.082158 1.917550 11.501208
LeftArm 69.181069 -20.942749 -39.396734
LeftForeArm -0.000000 12.566314 13.568977
LeftHand 3.480979 -0.000000 2.903829
LeftHandThumb1 -26.253704 33.147579 0.000000
RightShoulder -6.136500 13.053237 -12.745130
RightArm 47.663375 12.398352 47.581828
RightForeArm -0.000000 -39.245193 27.980310
RightHand -2.865731 0.000000 4.236448
RightHandThumb1 -24.326973 -32.862282 -0.000000
LeftUpLeg -73.453481 19.087384 -11.469443
LeftLeg 131.436857 -0.000000 -0.000000
LeftFoot -44.611067 12.355588 -19.345105
LeftToeBase -12.537189 -0.000000 0.000000
RightUpLeg -77.618651 -16.332118 11.139215
RightLeg 133.479106 -0.000000 -0.000000
RightFoot -38.728172 -18.888615 19.630536
RightToeBase -19.481145 -0.000000 0.000000
2528
root 5.201117 17.984379 -6.180483 -176.750418 1.367727 -181.783348
Spine 17.479058 13.440332 -2.814526
Head -10.136406 -3.797900 10.753945
LeftShoulder 6.041325 1.980574 11.533624
LeftArm 69.475681 -21.703041 -38.835687
LeftForeArm -0.000000 12.751342 13.610578
LeftHand 3.452678 -0.000000 2.902535
LeftHandThumb1 -26.253704 33.147579 0.000000
RightShoulder -6.233056 13.316065 -12.966609
RightArm 47.694878 12.987930 47.207576
RightForeArm 0.000000 -39.198810 28.495026
RightHand -3.113353 -0.000000 4.191323
RightHandThumb1 -24.326973 -32.862282 -0.000000
LeftUpLeg -74.315866 19.091765 -11.571663
LeftLeg 132.950173 -0.000000 -0.000000
LeftFoot -44.302400 12.304506 -19.132708
LeftToeBase -13.504178 -0.000000 0.000000
RightUpLeg -78.597226 -16.342183 11.413167
RightLeg 134.932548 -0.000000 -0.000000
RightFoot -38.708237 -19.203974 19.653141
RightToeBase -20.003133 -0.000000 0.000000
2529
root 5.210107 17.620016 -6.197470 -176.922773 1.361472 -181.880781
Spine 17.764952 13.540592 -2.836872
Head -10.307902 -3.787831 10.632847
LeftShoulder 5.985198 1.999703 11.628027
LeftArm 69.791840 -22.455855 -38.519893
LeftForeArm 0.000000 13.094406 13.700008
LeftHand 3.442646 -0.000000 2.920564
LeftHandThumb1 -26.253704 33.147579 0.000000
RightShoulder -6.313610 13.424897 -13.158076
RightArm 47.811932 13.663734 46.820912
RightForeArm -0.000000 -39.256308 28.945816
RightHand -3.219026 -0.000000 3.846251
RightHandThumb1 -24.326973 -32.862282 -0.000000
LeftUpLeg -75.123974 19.117612 -11.672152
LeftLeg 134.430570 -0.000000 -0.000000
LeftFoot -44.048211 12.192088 -19.016668
LeftToeBase -14.488808 -0.000000 0.000000
RightUpLeg -79.523449 -16.309990 11.633746
RightLeg 136.382260 -0.000000 -0.000000
RightFoot -38.670070 -19.445496 19.729193
RightToeBase -20.643333 -0.000000 0.000000
2530
root 5.214185 17.258381 -6.212174 -177.084397 1.368117 -182.004975
Spine 18.043786 13.645173 -2.880759
Head -10.459470 -3.761605 10.519043
LeftShoulder 5.926902 2.083613 11.737072
LeftArm 70.106641 -23.179394 -38.068867
LeftForeArm 0.000000 13.357128 13.637452
LeftHand 3.553388 -0.000000 2.975646
LeftHandThumb1 -26.253704 33.147579 0.000000
RightShoulder -6.340655 13.465486 -13.309940
RightArm 47.911554 14.323846 46.242546
RightForeArm -0.000000 -39.190064 29.384836
RightHand -3.388143 -0.000000 3.684091
RightHandThumb1 -24.326973 -32.862282 -0.000000
LeftUpLeg -75.945137 19.148732 -11.832345
LeftLeg 135.891037 -0.000000 -0.000000
LeftFoot -43.818730 12.116982 -18.870276
LeftToeBase -15.176753 -0.000000 0.000000
RightUpLeg -80.472478 -16.259078 11.805665
RightLeg 137.822145 -0.000000 -0.000000
RightFoot -38.618235 -19.665807 19.730149
RightToeBase -21.131750 -0.000000 0.000000
2531
root 5.218013 16.901099 -6.227281 -177.255243 1.367075 -182.177298
Spine 18.336254 13.774175 -2.950014
Head -10.586986 -3.803697 10.347951
LeftShoulder 5.971700 1.998098 11.809176
LeftArm 69.994922 -23.683665 -37.059544
LeftForeArm -0.000000 13.201713 13.604757
LeftHand 3.627678 -0.000000 3.176680
LeftHandThumb1 -26.253704 33.147579 0.000000
RightShoulder -6.420885 13.483468 -13.434549
RightArm 48.087427 14.898682 45.543974
RightForeArm -0.000000 -39.259442 29.615637
RightHand -3.293765 0.000000 3.191685
RightHandThumb1 -24.326973 -32.862282 -0.000000
LeftUpLeg -76.733859 19.185519 -12.060522
LeftLeg 137.289638 -0.000000 -0.000000
LeftFoot -43.614691 12.080633 -18.700633
LeftToeBase -15.943127 -0.000000 0.000000
RightUpLeg -81.438326 -16.206737 11.943891
RightLeg 139.247546 -0.000000 -0.000000
RightFoot -38.479602 -19.931511 19.710447
RightToeBase -21.818363 -0.000000 0.000000
2532
root 5.221669 16.546552 -6.243471 -177.453790 1.356793 -182.350766
Spine 18.666280 13.891544 -3.014298
Head -10.696126 -3.803482 10.191280
LeftShoulder 5.976662 1.925429 11.945067
LeftArm 69.991510 -24.156537 -36.245668
LeftForeArm -0.000000 13.353997 13.413907
LeftHand 3.654691 -0.000000 3.333292
LeftHandThumb1 -26.253704 33.147579 0.000000
RightShoulder -6.495536 13.485693 -13.516212
RightArm 48.260129 15.303480 44.514121
RightForeArm -0.000000 -39.144520 29.678146
RightHand -3.328313 -0.000000 2.713911
RightHandThumb1 -24.326973 -32.862282 -0.000000
LeftUpLeg -77.517974 19.229092 -12.324754
LeftLeg 138.666219 -0.000000 -0.000000
LeftFoot -43.438113 12.086250 -18.638422
LeftToeBase -16.539433 -0.000000 0.000000
RightUpLeg -82.390270 -16.179628 12.093487
RightLeg 140.649624 -0.000000 -0.000000
RightFoot -38.352743 -20.215502 19.715021
RightToeBase -22.488855 -0.000000 0.000000
2533
root 5.223576 16.197354 -6.258367 -177.633704 1.295037 -182.498653
Spine 18.971959 13.963198 -3.024374
Head -10.770306 -3.836046 10.023963
LeftShoulder 6.023541 1.830656 12.062435
LeftArm 69.840381 -24.507184 -35.177279
LeftForeArm -0.000000 13.399732 13.083339
LeftHand 3.786346 -0.000000 3.606023
LeftHandThumb1 -26.253704 33.147579 0.000000
RightShoulder -6.563411 13.454518 -13.568219
RightArm 48.490558 15.692510 43.424462
RightForeArm -0.000000 -39.249335 29.565086
RightHand -3.377089 -0.000000 2.160949
RightHandThumb1 -24.326973 -32.862282 -0.000000
LeftUpLeg -78.339529 19.215478 -12.610470
LeftLeg 140.020196 -0.000000 -0.000000
LeftFoot -43.268696 12.271518 -18.457089
LeftToeBase -16.919517 -0.000000 0.000000
RightUpLeg -83.366478 -16.193210 12.308371
RightLeg 142.009005 -0.000000 -0.000000
RightFoot -38.263578 -20.562915 19.750811
RightToeBase -22.969998 -0.000000 0.000000
2534
root 5.220439 15.852293 -6.273027 -177.851931 1.223572 -182.671848
Spine 19.341822 13.984792 -3.038465
Head -10.831188 -3.875071 9.769791
LeftShoulder 6.003329 1.811341 12.177622
LeftArm 69.631196 -24.784344 -33.809030
LeftForeArm -0.000000 13.389972 12.638503
LeftHand 3.905202 -0.000000 4.191118
LeftHandThumb1 -26.253704 33.147579 0.000000
RightShoulder -6.598850 13.493745 -13.645986
RightArm 48.662779 15.939290 42.204642
RightForeArm 0.000000 -39.312340 29.334529
RightHand -3.492296 -0.000000 1.576017
RightHandThumb1 -24.326973 -32.862282 -0.000000
LeftUpLeg -79.155843 19.201387 -12.977275
LeftLeg 141.335935 -0.000000 -0.000000
LeftFoot -43.103846 12.399354 -18.461672
LeftToeBase -17.284790 -0.000000 0.000000
RightUpLeg -84.325770 -16.242891 12.501695
RightLeg 143.344355 -0.000000 -0.000000
RightFoot -38.168605 -20.883970 19.807586
RightToeBase -23.563940 -0.000000 0.000000
2535
root 5.216796 15.512121 -6.287753 -178.093299 1.138848 -182.814626
Spine 19.757115 13.968604 -3.004401
Head -10.879149 -3.826472 9.491976
LeftShoulder 5.930540 1.731695 12.324119
LeftArm 69.533874 -25.003058 -32.681660
LeftForeArm -0.000000 13.858418 11.969924
LeftHand 4.123912 -0.000000 4.441875
LeftHandThumb1 -26.253704 33.147579 0.000000
RightShoulder -6.688780 13.503200 -13.806935
RightArm 48.970093 16.212407 41.182057
RightForeArm -0.000000 -39.549713 28.907440
RightHand -3.539749 -0.000000 1.136730
RightHandThumb1 -24.326973 -32.862282 -0.000000
LeftUpLeg -79.976500 19.180327 -13.342695
LeftLeg 142.633413 -0.000000 -0.000000
LeftFoot -42.744589 12.890183 -18.171515
LeftToeBase -17.694784 -0.000000 0.000000
RightUpLeg -85.254555 -16.299641 12.731619
RightLeg 144.649515 -0.000000 -0.000000
RightFoot -38.013480 -21.289370 19.766454
RightToeBase -24.207893 -0.000000 0.000000
